<?xml version="1.0" standalone="no"?>
<!DOCTYPE svg PUBLIC "-//W3C//DTD SVG 20010904//EN"
 "http://www.w3.org/TR/2001/REC-SVG-20010904/DTD/svg10.dtd">
<svg version="1.0" xmlns="http://www.w3.org/2000/svg"
 width="250.000000pt" height="250.000000pt" viewBox="0 0 250.000000 250.000000"
 preserveAspectRatio="xMidYMid meet">
<metadata>
Created by potrace 1.11, written by Peter Selinger 2001-2013
</metadata>
<g transform="translate(0.000000,250.000000) scale(0.100000,-0.100000)"
fill="#000000" stroke="none">
<path d="M363 2136 l-363 -364 0 -522 0 -523 364 -363 364 -364 522 0 521 0
365 364 364 363 0 523 0 523 -364 364 -365 363 -523 0 -523 -1 -362 -363z
m1035 -495 c28 -7 53 -18 53 -24 1 -7 2 -46 3 -87 l1 -75 92 -3 c56 -2 95 -7
101 -15 26 -33 41 -112 39 -200 -2 -80 -6 -101 -33 -157 -52 -110 -120 -172
-229 -211 -57 -20 -183 -32 -203 -20 -6 3 -56 96 -112 206 l-103 199 1 161 c0
88 1 178 1 200 l1 41 168 -1 c98 -1 189 -7 220 -14z m738 7 c5 -4 8 -41 8 -85
l-2 -78 -119 -5 -120 -5 1 -304 c1 -210 -2 -308 -10 -316 -10 -10 -133 -11
-159 -1 -6 2 -9 110 -8 315 l1 311 -119 0 -119 0 0 83 c0 46 2 86 4 88 7 6
631 3 642 -3z m-1351 -31 c9 -18 107 -210 360 -704 l32 -62 -85 -3 c-46 -2
-90 1 -98 5 -8 4 -21 24 -29 43 l-14 34 -182 -2 -181 -3 -22 -40 -21 -40 -75
2 c-41 1 -83 2 -93 2 -14 1 9 54 119 269 216 423 268 522 274 522 3 0 10 -10
15 -23z"/>
<path d="M1189 1477 c-1 -1 -2 -102 -3 -224 -1 -193 1 -223 14 -224 135 -8
198 9 254 71 99 110 60 300 -74 357 -28 12 -187 29 -191 20z"/>
<path d="M722 1190 c-23 -45 -42 -84 -42 -88 0 -4 41 -7 90 -7 50 0 90 1 90 2
0 9 -85 173 -90 173 -3 0 -25 -36 -48 -80z"/>
</g>
</svg>
