<?xml version="1.0" encoding="utf-8"?>
<!DOCTYPE svg PUBLIC "-//W3C//DTD SVG 1.1//EN" "http://www.w3.org/Graphics/SVG/1.1/DTD/svg11.dtd">
<!-- exported from Silhouette Studio® Business Edition V5.0.402ssbe -->
<svg version="1.1" xmlns="http://www.w3.org/2000/svg" xmlns:xlink="http://www.w3.org/1999/xlink" width="304.8mm" height="191.2056mm" viewBox="0 0 304.8 191.2056">
<defs>
<path id="path_9160baba4d3fa5825b27d742bde4cc0a" d="M 148.875 174.704 C 148.8727 174.7027 148.8743 174.4727 148.9708 174.4263 C 149.0206 174.4025 149.0661 174.4407 149.0835 174.4341 C 149.4239 174.3058 149.1881 174.8893 148.875 174.704 Z M 266.7253 92.31329 C 267.5204 91.40914 267.7747 92.09229 268.6277 91.72253 C 269.2052 91.47211 270.2776 90.00894 270.4095 89.446 C 270.6614 88.37046 270.1049 88.19436 271.2895 85.01345 C 272.5427 81.64848 271.3849 81.35442 271.2646 80.59869 C 271.2168 80.29834 271.4909 79.58595 271.3427 79.08011 C 271.2028 78.60288 270.9981 78.7064 270.8756 78.19698 C 270.634 77.19221 271.6441 76.75434 273.2004 72.86916 C 274.8412 68.77322 273.9056 68.14631 274.4099 67.25946 C 274.8301 66.5204 275.0088 66.97744 279.6997 64.08218 C 284.9492 60.84222 284.5147 61.10654 284.6062 60.74899 C 284.7857 60.047 284.1671 59.78336 283.8571 59.60194 C 284.5117 56.50905 288.6367 58.4252 289.6962 57.10397 C 290.0704 56.63741 289.5788 56.28827 291.3293 54.67688 C 292.0359 54.02646 293.0826 53.25172 293.0581 52.46635 C 293.033 51.65581 291.9751 51.08478 291.3804 50.74913 C 286.7887 54.01295 286.4799 45.65117 286.4973 44.75822 C 286.5662 41.23152 287.7014 39.31036 288.6694 38.62616 C 289.3862 38.11954 289.2972 38.50819 290.2666 37.80614 C 291.7842 36.70702 291.9567 36.27835 292.0608 36.02998 C 292.2923 35.47781 291.9776 34.38715 293.9147 33.67947 C 295.3424 33.15787 296.4589 33.75131 297.0642 31.55305 C 297.527 29.87215 299.3147 29.96555 301.2096 28.93388 C 303.1634 27.87019 302.1917 26.40875 302.0226 26.24205 C 301.4799 25.70703 300.646 26.01619 300.2933 25.72517 C 299.8479 25.35759 300.5533 25.18257 298.6753 24.1192 C 296.9189 23.12469 297.4486 22.74095 296.8661 21.88582 C 296.1233 20.79555 295.9761 21.52335 295.015 20.48892 C 294.112 19.51706 293.5786 17.63712 293.0923 15.98932 C 292.207 12.98959 291.3912 10.48224 289.1587 10.56306 C 287.9431 10.60707 287.3417 11.28839 286.2238 11.4809 C 284.5818 11.7637 284.2091 10.96111 283.3371 11.14522 C 282.8779 11.24219 281.5884 11.59413 280.7699 17.2262 C 280.0196 22.38892 280.0724 25.76424 279.4302 26.59718 C 279.1115 27.01048 278.7105 26.78734 277.9299 28.40402 C 276.0255 32.34804 270.6241 32.97108 269.3347 33.22401 C 266.0281 33.87268 261.9622 34.39621 259.1865 36.54796 C 256.8149 38.38638 257.1364 39.4581 255.35 41.942 C 253.1715 44.97121 254.4051 45.12407 254.6724 46.60947 C 254.7414 46.99281 255.0261 48.98038 252.2748 49.79066 C 250.0005 50.46046 246.8336 50.08868 244.369 50.73439 C 242.0159 51.35088 241.5692 52.60799 241.3552 53.81503 C 243.6363 58.22191 238.7967 61.40447 231.2686 65.59325 C 227.1637 67.87728 227.274 68.49928 225.4408 68.06181 C 224.2033 67.76649 223.0286 66.7835 223.2524 65.80208 C 223.515 64.65083 224.8805 64.74096 225.6503 64.36288 C 227.5397 63.43496 227.5089 62.0106 227.5249 61.76935 C 226.4643 60.13882 226.4594 57.88036 225.3253 54.12219 C 223.987 49.68741 222.5644 49.81177 222.0088 49.71623 C 221.9728 49.71004 220.6925 49.66095 220.5675 48.25015 C 220.5294 47.82007 221.228 44.81735 218.081 41.77197 C 217.1997 40.91914 216.0238 40.49126 216.1615 39.20091 C 216.2365 38.49811 216.635 38.69876 214.8951 36.06317 C 214.2105 35.02612 213.3549 33.74245 212.6987 33.56229 C 211.9297 33.35118 211.8741 34.06479 209.8628 33.29974 C 209.9017 33.04311 210.0217 32.72139 209.8118 32.38869 C 209.0806 31.22992 204.203 32.42563 201.2614 34.50363 C 200.1483 35.29002 199.1227 35.20363 197.7029 34.27655 C 194.8337 32.40323 194.6352 32.29221 194.4734 31.42664 C 194.2954 30.47453 195.3625 28.8736 194.7854 28.37302 C 193.8114 27.5282 188.833 31.63254 185.4915 33.76399 C 181.7703 36.13763 181.8691 34.11763 180.7699 33.49959 C 180.2413 33.20241 178.9056 33.55582 178.954 32.44675 C 178.9987 31.42406 182.006 30.15213 183.6587 29.12672 C 185.8122 27.79065 186.3135 26.30582 186.1854 25.78078 C 185.8756 24.51068 184.4863 25.2951 183.2097 25.19656 C 181.3577 25.05365 180.3309 24.33086 178.8924 24.63593 C 177.8117 24.86511 177.5243 25.33896 176.9797 25.43109 C 175.7679 25.63614 174.7932 24.14822 173.5164 23.77095 C 171.3136 23.12013 172.4787 23.27 171.3676 22.57135 C 170.0213 21.72478 167.4987 22.17726 165.3154 22.17949 C 160.6221 22.18427 161.7546 19.74498 160.2811 18.72777 C 158.4717 17.47871 155.8842 20.01105 129.3702 19.40355 C 104.2175 18.82726 78.10172 14.17235 75.24091 13.67923 C 65.25306 11.95758 56.38888 10.10382 48.62396 8.33728 C 31.47412 4.435638 28.11574 2.74733 27.10945 3.812958 C 26.65863 4.290359 27.1348 6.618713 27.12144 7.170715 C 27.07242 9.196701 26.31848 9.791565 26.30222 9.809998 C 26.01656 8.850693 26.60179 8.691833 26.0327 8.18837 C 25.27381 7.516983 24.75994 8.862015 22.73418 7.997025 C 20.61407 7.091736 18.80544 4.009125 17.64702 4.237701 C 16.83636 4.397629 16.01468 6.455582 16.475 11.0229 C 16.8004 14.25159 17.60106 18.33437 16.35219 20.75728 C 14.96322 23.45204 15.94416 20.63445 13.41802 29.7654 C 10.53661 40.18048 9.89485 37.51926 8.241044 39.52982 C 7.20843 40.78519 7.601212 41.17014 6.21072 50.42514 C 4.905226 59.11441 3.708433 58.4346 2.887923 59.73508 C 2.050474 61.06242 2.398758 62.65215 2.932488 64.14889 C 4.133698 67.51743 3.474856 67.05986 3.152147 69.61843 C 2.762001 72.71166 3.925279 75.46884 5.108152 78.39664 C 7.599023 84.56192 6.689844 85.50279 6.587692 86.96829 C 6.495517 88.29068 8.032076 89.19329 8.818007 90.26077 C 8.529638 90.51963 6.962497 91.23489 8.182142 94.80549 C 9.382986 98.32107 11.4451 99.81342 11.21447 103.1648 C 12.1952 104.2526 12.46341 105.019 12.1076 106.1124 C 11.79146 107.0838 10.99407 107.8825 11.16091 108.5791 C 11.49357 109.968 15.64152 110.207 17.60519 111.2751 C 20.08598 112.6245 17.86579 112.9139 21.03686 114.6508 C 24.53273 116.5657 22.36023 116.9069 24.45609 117.9774 C 25.38609 118.4524 26.65121 118.0338 27.5658 121.6275 C 28.33919 124.6664 28.02317 126.1704 29.25915 127.2579 C 30.32847 128.1987 30.9268 127.7824 34.56426 128.4235 C 43.69805 130.0333 50.13511 134.608 56.92228 138.5643 C 62.95981 142.0836 69.62041 145.3698 79.32424 144.295 C 83.60863 143.8204 86.58752 142.7457 87.30287 142.6311 C 87.48249 142.6024 89.86147 142.1678 93.63573 145.1666 C 95.70947 146.8142 98.25251 149.676 100.1148 153.6087 C 102.8518 159.3882 100.6458 158.4496 104.266 160.8157 C 109.4739 164.2195 109.7866 164.6162 111.4643 164.3044 C 113.763 163.8771 114.0502 161.1388 115.0649 160.2487 C 115.6936 159.6973 117.8169 158.497 119.8736 159.0684 C 122.357 159.7582 124.2677 162.716 125.6124 165.0433 C 127.3868 168.114 129.0202 171.5327 130.8857 173.6585 C 132.4205 175.4077 132.4306 174.5755 132.6304 176.8776 C 133.0419 181.617 135.9747 184.6503 141.4835 186.4699 C 147.3847 188.4192 147.9061 187.5883 148.3378 187.154 C 149.6816 185.8019 148.307 184.0826 147.8155 180.868 C 147.5069 178.8495 147.8168 177.2145 149.4513 174.6071 C 150.0709 174.9504 150.0507 174.8162 150.0797 174.8217 C 150.1784 173.7456 149.7372 173.551 149.8269 173.0385 C 149.9041 172.597 150.4604 171.8325 152.3288 170.623 C 154.696 169.0908 153.9729 169.002 154.5921 168.665 C 155.18 168.345 156.5527 168.7688 157.1411 168.5294 C 157.5862 168.3483 156.8922 168.5015 159.7926 166.6056 C 161.2348 165.6629 162.0126 164.8209 164.0798 162.9747 C 167.0062 160.3609 168.4235 159.8438 170.2483 160.5229 C 174.669 159.3105 173.1472 160.7149 177.4959 160.9981 C 180.5157 161.1947 183.269 160.5191 184.9162 162.4728 C 185.9994 163.7577 185.9755 163.4428 187.3965 163.3893 C 188.7915 163.3368 188.2529 163.9407 190.3596 163.3562 C 191.3814 163.0727 191.4797 163.5799 192.0903 163.5492 C 193.2082 163.493 194.123 161.5604 194.8877 161.692 C 195.9473 161.8743 195.0851 162.6587 196.7029 162.969 C 198.8526 163.3813 198.8502 163.6704 199.3746 163.4847 C 199.9129 163.2941 200.3065 162.5293 200.1985 161.2983 C 200.1627 160.8909 200.1204 160.4155 199.6714 159.8582 C 199.6672 159.853 199.18 159.2867 199.1752 159.282 C 198.2482 158.3681 198.396 159.1673 198.1431 157.0013 C 197.9711 155.5278 197.6534 154.494 198.2733 153.9417 C 199.0068 153.2881 200.3638 154.0194 201.4269 154.1061 C 202.9308 154.2289 202.9592 153.266 204.4337 153.4095 C 205.4267 153.5061 206.7363 154.3738 207.795 153.9278 C 208.7326 153.5329 207.4491 153.4654 211.4169 152.7289 C 212.5964 152.5099 212.2931 153.0726 213.6427 153.0541 C 214.3149 153.0449 217.992 152.5684 218.685 153.0238 C 219.0967 153.2944 218.9287 153.6774 219.647 154.1723 C 220.0493 154.4495 220.5895 154.4193 221.1842 155.5066 C 221.9188 156.8499 221.5348 157.2892 222.2863 158.0567 C 222.5175 157.854 222.5087 158.1729 223.3972 156.202 C 228.6674 154.8246 228.3338 152.6849 229.2642 152.4505 C 229.7215 152.3353 230.3613 152.8019 232.0874 154.3861 C 236.1118 158.0797 233.3983 155.052 236.3608 157.4399 C 238.6694 159.3007 238.4563 161.9822 238.4583 162.7425 C 238.4629 164.5113 238.1017 167.275 239.9278 169.4452 C 241.2286 170.991 239.9611 169.2062 241.7545 171.8633 C 242.3576 172.7569 243.3622 174.091 245.0893 175.8027 C 246.97 177.6667 249.7464 179.9331 251.6922 181.9581 C 253.761 184.111 253.5697 184.9518 256.2671 183.7232 C 262.3941 180.9326 260.4039 174.1041 258.0265 168.6773 C 254.8885 161.5145 250.0135 154.5209 247.7018 148.9426 C 246.2568 145.4559 247.3112 146.6721 246.1013 145.2706 C 245.8441 144.9726 245.32 144.3681 245.3531 143.4503 C 245.3936 142.3281 246.3384 141.2209 246.5724 140.4494 C 246.8962 139.3817 246.817 137.184 247.0258 136.7301 C 248.4272 133.6826 248.4178 134.691 248.872 132.8597 C 248.9557 132.5224 248.9966 131.7524 250.8711 131.1868 C 252.4611 130.7071 252.8266 131.3753 253.2816 130.7941 C 253.6901 130.2723 253.1899 130.1783 253.2649 129.6295 C 253.3213 129.216 253.4461 129.4259 253.6233 128.8959 C 253.7146 128.623 253.6602 127.9149 254.009 127.6036 C 254.3962 127.258 254.7598 127.552 255.1297 127.2753 C 255.9453 126.6652 255.7059 122.0889 258.6749 120.2124 C 260.1586 119.2748 262.0491 119.4947 262.7628 118.005 C 263.1394 117.2189 261.8197 115.5664 265.5166 113.3047 C 268.2476 111.6339 269.9032 111.3839 269.8893 109.3372 C 269.8754 107.2878 270.8387 106.5509 271.5163 105.7476 C 272.8211 104.2008 272.5998 103.4188 271.8307 101.4225 C 271.2037 99.79547 271.7193 99.57735 271.0162 98.86177 C 270.6412 98.4802 270.1048 98.48647 269.7813 96.95578 C 269.5789 95.99776 269.507 94.44468 268.7126 93.89722 C 268.2941 93.60882 266.8635 93.6729 266.7253 92.31329 Z" fill-rule="evenodd" fill="#E4F7FF" fill-opacity="1" stroke="none" stroke-opacity="1" stroke-width="0.3527777" stroke-linecap="butt" stroke-linejoin="miter"/>
</defs>
<g>
<use xlink:href="#path_9160baba4d3fa5825b27d742bde4cc0a"/>
</g>
</svg>